<?xml version="1.0" encoding="UTF-8"?>
<svg id="Layer_3" data-name="Layer 3" xmlns="http://www.w3.org/2000/svg" viewBox="0 0 2048 379.28">
  <defs>
    <style>
      .cls-1 {
        fill: #fff;
      }
    </style>
  </defs>
  <g id="Layer_1" data-name="Layer 1">
    <g>
      <path class="cls-1" d="M169.66,150.56l-76.13-.41s.18,89.57.18,121.18c0,28.28,32.73,41.05,32.73,41.05H0c12.48-6.67,32.08-15.75,32.08-41.49l-.1-233.29C31.98,16.77,15.63,5.68,1.84,0h212.78c8.72,0,25.28,0,41.2,0l-.25,55.7-15.25-14.06c-8.42-6.33-18.83-11.71-30.9-11.72l-115.77-.06v92.25s66.64.11,66.64.11c25.06.04,33.7-9.38,50.61-24.87l.04,76.54-9.83-9.2c-7.67-7.18-18.95-14.05-31.46-14.12Z"/>
      <path class="cls-1" d="M1468.99,38.13s23.92,15.45,23.92,31.55l-.26,143.06-137.68-168.81c-3.37-4.23-5.67-5.8-11-5.8h-72.22c12.95,5.22,23.8,13.19,23.8,33.3l.03,201.71c-.89,16.06-11.03,31.97-23.28,32.19-15.1.27-27.99-22.89-30.89-29.68l-93.93-237.52h-75.25c14.04,3.5,24.43,18.44,17,36.91-28.26,70.31-55.29,138.26-86.8,207.23-5.93,12.99-16.8,23.02-28.89,30.09h90.4c-9.09-6.26-28.72-16.02-22.21-31.44l23.46-56.06,95.94.07,19.57,50.99c10.39,22.41-9.16,30.69-18.65,36.44h199.06s-25.05-10.09-25.05-37.65c0-41.92.06-165.11.06-165.11l90.04,113.04s63.78,77.44,70.24,85.22c4.24,5.09,3.3,4.5,35.09,4.5,0,0,.09-181.64.09-242.03,0-16.67,14.61-31.15,25.32-32.21h-87.92ZM1147.38,196.09l-37.44-.13c-11.03-.04-22.25-.13-33.27-.66l37.13-91.55,36.1,88.6c.18.44.39,1.76.42,2.23.04.63-2.13,1.51-2.95,1.51Z"/>
      <path class="cls-1" d="M777.38,344.96c-29.64-16.2-44.41-36.07-63.31-63.33l-31.99-48.79c-11.5-17.55-24.77-32.65-41.76-46.63,24.4-5.58,46.24-17.92,59.48-38.92,10.96-17.37,14.25-38.37,6.98-57.55-12.83-33.8-58.49-51.6-91.36-51.62h-125.4c14.92,7.79,24.29,19.39,24.29,36.45l-.04,199.54c0,23.27-13.87,32.01-26.03,32.01-12.77,0-25-18.55-29.71-30.48l-93.93-237.52h-75.25c11.39,6.04,24.43,18.44,17,36.91-28.27,70.31-55.3,138.26-86.81,207.23-5.93,12.99-16.79,23.02-28.89,30.09h90.4c-9.09-6.26-28.71-16.02-22.21-31.44l23.46-56.06,95.94.07,19.58,50.99c10.38,22.41-9.16,30.69-18.65,36.44h214.64s-24.43-11.16-24.43-32.83l-.05-85.1c10.18-4.2,20.35-.08,26.17,9.07l46.71,73.51c8.27,13.02,15.62,25.45,25.58,37.27,23.51,27.9,54.06,48.27,89.26,59.62,18.48,5.96,42.04,6.42,60.64,4.02,13.01-1.69,30.51-8.47,41.08-18.93-31.6,3.84-59.5-2.06-81.42-14.04ZM364.53,196.09l-37.44-.13c-11.04-.04-22.26-.13-33.27-.66l37.13-91.55,36.09,88.6c.18.44.4,1.76.43,2.23.04.63-2.14,1.51-2.95,1.51ZM637.04,145.42c-21.39,19.77-39.97,17.58-67.43,17.58l-.14-96.73c25.03,0,56.41-.49,70.71,13.8,18.14,18.14,15.76,47.89-3.13,65.35Z"/>
      <path class="cls-1" d="M1566.09,312.36c.89-.37,24.92-9.23,24.92-34.13l.13-205.76c0-14.25-12.97-29.89-25.04-34.35h142.22c31.83,0,53,9.39,69.95,20.81,27.63,18.62,48.15,43.28,54.93,75.95,18.38,88.52-46.56,177.39-138.72,177.48h-128.38ZM1769.69,214.15c8.28-27.76,9.07-57.14,1.26-85.05-10.26-36.69-39.55-62.83-78.32-62.84h-44.38s-.02,214.3-.02,214.3h32.97c39.19,0,77.29-28.83,88.5-66.41Z"/>
      <path class="cls-1" d="M1870.45,298.74c-14.02-4.52-21.34,6.73-24.52,13.62l.11-81.84c11.37,17.47,24.06,33.9,43.38,42.16,26.73,11.43,66.7,16.08,89.23-5.36,16.08-15.3,14.69-38.6-2.98-52.19-8.7-6.68-18.41-11.63-28.87-16.02l-41.33-17.34c-13.08-5.49-25.25-12.37-35.12-21.79-25.57-24.42-27.34-61.31-4.51-87.66,27.05-31.21,73.61-38.52,113.72-30.13,9.82,2.05,19.03,4.82,28.5,7.53,5.91,1.68,13.68-.02,17.87-4.06,2.05-1.98,5.58-7.55,5.58-7.55l-.35,74.72c-10.47-13.94-18.99-25.08-32.75-33.2-19.57-11.56-41.89-16.67-64.62-12.15-16.51,3.28-31.15,13.03-31.88,29.53-.37,8.35,3.69,16.24,10.84,21.88,5.94,4.68,12.48,8.95,19.66,12.07l38.74,16.82c30.6,13.29,64.55,28.73,74.13,62.18,11.23,39.18-13.57,79.24-53.65,94.1-40.34,14.96-81.3,7.54-121.19-5.33Z"/>
      <path class="cls-1" d="M973.53,229.79h0c-10.12,56.6-27.84,82.57-27.84,82.57h-182.2s24.47-9.5,24.47-42.26c0-50.15.01-196.58.01-196.58,0-15.74-9.02-27.93-23.53-35.4h104.49c-10.76,5.05-24.37,15.22-24.37,32.41,0,52.49-.05,209.97-.05,209.97h0c35.14.4,98.78,5.35,129.02-50.71Z"/>
    </g>
  </g>
</svg>