<?xml version="1.0" encoding="UTF-8"?>
<svg id="Layer_2" data-name="Layer 2" xmlns="http://www.w3.org/2000/svg" viewBox="0 0 2048 2048">
  <defs>
    <style>
      .cls-1 {
        fill: #ffc800;
      }
    </style>
  </defs>
  <g id="Layer_1-2" data-name="Layer 1">
    <g>
      <path class="cls-1" d="M1096.66,866.09c-45.44-3.05-88.87,2.26-131.06,16.23-27.6,9.14-50.66,26.84-69.1,49.23-34.22,41.57-50.03,95.93-42.85,149.43,4.57,34.06,19.43,64.88,44.45,87.76,17.04,15.58,37.37,25.14,59.93,30.59,47.28,11.41,97.24,5.8,141.1-15.01,18.26-8.66,33.62-20.12,46.08-35.52,23.23-28.69,23.86-68.44,1.15-97.63-23.26-29.9-73-58.97-108.45-38.78-28.03,15.96-25.38,52.61-7.79,74.35,7.25,8.14,17.27,10.58,28.23,10.68,12.31-.98,23.21-5.11,35.38-9.73-13.72,19.45-31.21,34.38-53.04,42.36-38.85,14.2-81.28.4-106.81-31.6-14.82-18.57-19.65-40.06-17.06-63.47,4.34-39.29,24.32-73.41,58.21-94.03,59.59-36.26,143.1-32.26,204.98-3.64,19.59,9.06,37.15,20.27,51.39,36.41,19.33,21.93,34.36,46.34,47.21,72.52,7.27,14.82,10.97,29.57,13.67,45.65,8.17,48.6,9.86,92.71-14.56,137.48-25.63,46.98-59.09,81.35-107.77,104.42-23.67,11.22-47.12,21.96-72.95,28.13-52.15,12.45-106.28,10.81-158.45.08-19.39-3.99-36.63-10.36-54.01-18.7-24.85-11.93-44.26-29.62-59.85-52.83-36.5-54.36-63.73-114.47-80.57-177.98-8.76-33.04-17.15-90.25-.36-120.25l39.56-70.7,43.91-79.95c4.91-8.94,10.92-16.74,17.37-24.5,34.66-41.68,91.41-20.22,144.52-29.31,43.36-7.42,54.84-34.38,75.2-33.48,90.73,4.01,187.4,51.21,256.49,108.69,22.74,18.92,43,38.86,60.52,62.52l53.81,72.66c18.92,25.56,35.47,51.4,51.72,78.75,34.94,58.82,58.4,118.08,58.39,187.38,0,33.07-10.68,63.37-30.43,89.5-25.07,33.17-48.95,46.44-75.35,76.44l-85.34,96.99-101.68,121.45c-6.17,7.37-10.46,15.63-16.1,23.25-16.26,21.97-19.13,41.69-35.42,56.23-5.91,2.59-15.65-.71-21.66-3.34-61.88-27.02-191.22-117.97-243.54-162.39l-24.38-20.7-73.29-102.66c-4.34-6.08-9.66-9.09-14.88-14.17-42.25-41.12-73.13-92.05-90.37-148.57-3.92-12.84-10.96-43.84-.04-52.44,3.68-2.9,11.49-6.46,15.39-2.58,7.72,7.69,17.8,45.71,44.06,77.33,26.58,32,59.11,57.77,96.19,76.49,12.09,6.1,24.54,11.3,37.73,13.11,56.23,7.73,56.63,36.82,104.03,33.46,26.26-1.86,53.03,3.01,68.91,1.06,12.39-1.52,25.57-3.45,37.03-8.16,21.74-8.95,41.77-19.18,62.61-29.94,70.63-36.48,124.53-91.53,140.22-172.07,5.39-27.65,9.09-54.35,12.66-82.28,1.51-11.83,1.37-23.21,1.06-35.32-.92-35.76-12.24-69.32-32.76-98.74-21.55-30.91-48-57.42-78.82-79.1-42.75-30.08-91.18-47.5-144.41-51.08Z"/>
      <path class="cls-1" d="M1747.31,1188.63c-39.6,22.93-54.85,42.63-91.59,64.29-22.89,13.49-55.55,23.9-71.47-5.01-4.39-7.97-7.92-16.9-9.46-26.14-4.11-24.57-10.94-47-20.67-70.14-19.99-47.53-44.41-91.96-73.04-134.74l-42.1-62.91-44.59-59.78c-19.98-26.79-41.29-51.18-65.15-74.47-14.27-13.93-29.75-23.64-48.19-31.31-25.72-10.7-50.69-20.51-77.73-28.34l-166.18-48.08-156.38-43.04c-47.08-12.96-130.23-44.19-160.59-82.97-11.99-15.31-13.15-35.44-1.07-51.22,21.68-28.33,42.34-56.26,61.86-86.58l108.22-168.1c25.82-40.11,89.69,46.06,104.25,65.54,17.42,23.3,33.6,45.78,49.77,69.99l62.02,92.88c18.54,27.76,38.3,52.9,61.28,77.23,44.5,47.12,93.94,88.14,148.72,122.57,14.93,9.38,29.2,18.02,45.52,24.38,35.29,13.76,68.92,28.31,101.4,47.93,50.49,30.5,96.23,69.1,128.9,118.64,8.57,13,17.16,24.67,27.42,36.44,23.38,26.8,47.42,51.39,72.66,76.49l59.03,58.74c11.64,11.58,49.33,49.39,49.77,63.81.75,24.47-34.14,43.2-52.61,53.9Z"/>
      <path class="cls-1" d="M1029.5,2048c-10.22-19.85-22.3-38.7-31.76-60.11l-67.25-152.2-38.27-82.11-28.47-51.6c-20.75-22.58-39.97-45.08-59.3-69.2l-72.59-90.56c-8.77-10.95-18.58-18.97-30.04-26.8-32.3-22.08-56.7-43.03-61.1-84.24l-9.82-91.79c-2.02-18.85-5.39-36.77-11.08-54.76-6.59-20.87-17.36-38.89-28.24-57.66-9.89-17.05-20.35-32.01-34.56-45.85-21.71-21.15-44.21-40.3-69.52-57.33l-109.53-73.71c-23.74-15.98-46.23-31.17-67.98-49.6-18.42-15.61-47.54-37.18-40.95-64.79,3.59-15.04,36.18-31.89,50.53-40.08,17.55-10.01,33.28-20.93,49.2-33.4,11.86-9.29,23.29-18.62,36.64-25.6,17.03-8.89,32.79-17.92,47.79-29.94,8.43-6.75,16.29-13.51,25.4-19.43,16.03-10.42,36.96-12.28,54.88-5.41,39.95,15.31,70.88,47.8,93.46,83.61,15.73,24.94,29.65,49.99,41.3,77.2,24.42,57.05,25.11,128.07,24.47,189.81-.21,20.72,1.58,39.92,3.29,60.29l4.74,56.48c1.45,17.26,5.21,34.83,12.18,50.48,16.16,36.31,61.23,107.94,84.88,137.68,13.9,17.48,19.28,29.55,29.3,44.4,9.74,14.44,22.2,35.16,21.58,34.14,25.77,32.52,48.21,56.1,73.25,80.16,17.64,16.95,56.34,39.96,77.72,58.38,35.71,30.75,39.42,23.97,76.39,47.9,27.6,13.14,54.03,26.21,79.98,42.44,11.96,7.48,3.9,38.58-.11,50.26-6.88,20.04-15.3,38.27-24.71,57.5l-101.71,195.46Z"/>
      <path class="cls-1" d="M1916.68,1092.67c-26.93,7.37-63.93,13.64-88.8-.51-32.13-18.28-76.22-60.12-101.39-87.86l-91.56-100.93-75.63-85.41c-10.9-12.31-22.61-22.58-35.96-31.9-15.5-10.81-30.39-20.73-46.91-30.13l-102.79-58.5-75.87-43.94c-19.63-11.37-38.25-22.94-55.83-37.29-34.46-28.12-95.22-115.98-120.83-155.83-8.6-13.38-15.27-26.42-25.4-38.6-15.93-21.14-31.87-40.66-49.52-60.78-40.28-45.91-82.02-89.33-125.77-133.11,37.63-74.73,71.93-150.89,104.55-227.88l30.2,71.61,30.73,65.94,49.93,97.17,67.6,120.44,51.21,91.53c12.88,23.03,26.71,44.1,41.63,65.77,58.16,68.35,123.27,128.02,189.3,188.88l281.96,196.34c12.57,8.75,24,15.26,37.68,22.01l215.23,97.35c9.84,4.45,17.93,6.99,27.54,12.75-6.57,5.56-11.29,9.48-17.81,13.46-35.52,21.69-73.25,38.4-113.51,49.42Z"/>
      <path class="cls-1" d="M610.98,1424.27c-7.6,4.53-9.89,7.35-17.29,3.13-8.63-4.91-19.9-18.49-27.74-24.73l-53.73-55.33c-26.37-21.01-74.98-62.37-102.65-81.6-64.03-44.52-259.18-146.41-333.8-184.26L0,1041.95c12.74-9.75,47.18-20.13,61.36-26.63l144.77-54.23c16.74-7.67,36.38,28.46,47.88,39.63l34.28,33.33c10.69,10.39,20.91,19.24,33.36,27.86l178.24,123.44c44.67,30.94,75.39,75.69,87.33,128.71,9.09,40.37,8.77,70,23.75,110.21Z"/>
      <path class="cls-1" d="M988.84,743.1c.47,5.29-8.82,9.81-13.98,11.5-24.1,7.97-48.77,10.48-74.19,8.52-32.04-2.44-57.97-1.12-78.84,24.16-12.32,14.93-19.45,32.23-25.86,50.28-1.46,4.11-29.39,77.43-37.2,91.98-5.16,10.35-39.13,79.09-54.98,54.86-2.71-4.14-4.92-9.36-6.11-14.35-4.51-19.2-9.81-36.95-17.21-55.41-16.32-40.85-47.14-102.61-76.53-134.53-15.14-16.46-31.36-30.54-48.23-45.16-1.26-1.05-3.16-3.9-3.05-5.33.51-8.14,58.34-73.66,68.42-85.37,12.66-14.69,25.66-27.86,42.15-37.7,8.76-5.23,21.69-7.63,30.48-4.11.03,0,.1.03.14.03,12.63,3.46,29.49,34.07,68.59,52.46l31.39,16.25,179.74,60.36c5.53,1.87,14.8,6.24,15.27,11.54Z"/>
    </g>
  </g>
</svg>