<?xml version="1.0" encoding="UTF-8"?>
<svg id="Layer_2" data-name="Layer 2" xmlns="http://www.w3.org/2000/svg" viewBox="0 0 2048 1313.6">
  <defs>
    <style>
      .cls-1 {
        fill: #fff;
      }
    </style>
  </defs>
  <g id="Layer_1" data-name="Layer 1">
    <g>
      <g>
        <path class="cls-1" d="M1049.92,309.08c-16.21-1.09-31.71.81-46.76,5.79-9.85,3.26-18.07,9.58-24.65,17.57-12.21,14.83-17.85,34.24-15.29,53.33,1.63,12.15,6.93,23.15,15.86,31.32,6.08,5.56,13.33,8.97,21.38,10.92,16.87,4.07,34.69,2.07,50.34-5.36,6.51-3.09,11.99-7.18,16.44-12.68,8.29-10.24,8.51-24.42.41-34.84-8.3-10.67-26.05-21.05-38.69-13.84-10,5.7-9.06,18.77-2.78,26.53,2.59,2.9,6.16,3.78,10.07,3.81,4.39-.35,8.28-1.83,12.62-3.47-4.89,6.94-11.14,12.27-18.92,15.12-13.86,5.07-29,.14-38.11-11.28-5.29-6.63-7.01-14.3-6.09-22.65,1.55-14.02,8.68-26.2,20.77-33.55,21.26-12.94,51.05-11.51,73.13-1.3,6.99,3.23,13.26,7.23,18.33,12.99,6.9,7.83,12.26,16.54,16.84,25.88,2.59,5.29,3.91,10.55,4.88,16.29,2.91,17.34,3.52,33.09-5.2,49.06-9.14,16.76-21.08,29.03-38.45,37.26-8.44,4-16.81,7.84-26.03,10.04-18.61,4.44-37.92,3.86-56.53.03-6.92-1.42-13.07-3.7-19.27-6.67-8.87-4.26-15.79-10.57-21.35-18.85-13.02-19.4-22.74-40.85-28.74-63.52-3.12-11.79-6.12-32.21-.13-42.91l14.11-25.23,15.67-28.53c1.75-3.19,3.9-5.97,6.2-8.74,12.37-14.88,32.61-7.22,51.56-10.46,15.47-2.65,19.56-12.27,26.83-11.95,32.37,1.43,66.86,18.27,91.51,38.79,8.11,6.75,15.34,13.87,21.59,22.31l19.2,25.93c6.75,9.12,12.66,18.34,18.45,28.1,12.46,20.99,20.83,42.14,20.83,66.87,0,11.8-3.81,22.61-10.86,31.94-8.94,11.84-17.46,16.57-26.88,27.28l-30.45,34.61-36.28,43.34c-2.2,2.63-3.73,5.58-5.75,8.3-5.8,7.84-6.82,14.88-12.64,20.07-2.11.92-5.58-.25-7.73-1.19-22.08-9.64-68.22-42.1-86.89-57.95l-8.7-7.39-26.15-36.64c-1.55-2.17-3.45-3.24-5.31-5.06-15.07-14.68-26.09-32.85-32.24-53.02-1.4-4.58-3.91-15.64-.01-18.71,1.31-1.03,4.1-2.31,5.49-.92,2.75,2.74,6.35,16.31,15.72,27.6,9.48,11.42,21.09,20.62,34.32,27.3,4.31,2.18,8.76,4.03,13.46,4.68,20.06,2.76,20.2,13.14,37.11,11.94,9.37-.66,18.92,1.07,24.58.38,4.42-.54,9.12-1.23,13.21-2.91,7.75-3.19,14.9-6.84,22.34-10.68,25.2-13.02,44.43-32.66,50.03-61.41,1.92-9.87,3.24-19.4,4.52-29.36.54-4.22.49-8.28.38-12.6-.33-12.76-4.37-24.74-11.69-35.24-7.69-11.03-17.13-20.49-28.12-28.23-15.25-10.73-32.53-16.95-51.52-18.23Z"/>
        <path class="cls-1" d="M1282.06,424.18c-14.13,8.18-19.57,15.21-32.68,22.94-8.17,4.82-19.82,8.53-25.5-1.79-1.57-2.85-2.82-6.03-3.38-9.33-1.47-8.77-3.9-16.77-7.37-25.03-7.13-16.96-15.84-32.82-26.06-48.08l-15.02-22.45-15.91-21.33c-7.13-9.56-14.73-18.26-23.24-26.58-5.09-4.97-10.62-8.44-17.19-11.17-9.17-3.82-18.08-7.32-27.73-10.11l-59.29-17.16-55.79-15.36c-16.8-4.62-46.46-15.77-57.29-29.61-4.28-5.46-4.69-12.65-.38-18.28,7.74-10.11,15.11-20.08,22.07-30.9l38.61-59.99c9.21-14.31,32,16.44,37.19,23.39,6.21,8.31,11.99,16.34,17.76,24.98l22.13,33.14c6.61,9.91,13.67,18.88,21.86,27.56,15.88,16.82,33.51,31.45,53.06,43.74,5.33,3.35,10.42,6.43,16.24,8.7,12.59,4.91,24.59,10.1,36.18,17.1,18.01,10.88,34.33,24.66,45.99,42.34,3.06,4.64,6.12,8.8,9.78,13,8.34,9.56,16.92,18.34,25.92,27.3l21.06,20.96c4.15,4.13,17.6,17.63,17.76,22.77.27,8.73-12.18,15.42-18.77,19.23Z"/>
        <path class="cls-1" d="M1025.96,730.87c-3.65-7.08-7.96-13.81-11.33-21.45l-23.99-54.32-13.65-29.3-10.16-18.41c-7.4-8.06-14.26-16.09-21.16-24.7l-25.9-32.32c-3.13-3.91-6.63-6.77-10.72-9.57-11.52-7.88-20.23-15.35-21.8-30.06l-3.5-32.76c-.72-6.73-1.92-13.12-3.95-19.54-2.35-7.45-6.19-13.88-10.08-20.58-3.53-6.09-7.26-11.42-12.33-16.36-7.74-7.55-15.77-14.38-24.8-20.46l-39.08-26.3c-8.47-5.7-16.49-11.12-24.25-17.7-6.57-5.57-16.96-13.27-14.61-23.12,1.28-5.37,12.91-11.38,18.03-14.3,6.26-3.57,11.87-7.47,17.55-11.92,4.23-3.32,8.31-6.65,13.07-9.13,6.08-3.17,11.7-6.4,17.05-10.69,3.01-2.41,5.81-4.82,9.06-6.94,5.72-3.72,13.19-4.38,19.58-1.93,14.25,5.46,25.29,17.06,33.35,29.84,5.61,8.9,10.58,17.84,14.73,27.55,8.71,20.36,8.96,45.7,8.73,67.74-.08,7.39.56,14.25,1.17,21.52l1.69,20.15c.52,6.16,1.86,12.43,4.34,18.01,5.76,12.96,21.85,38.52,30.28,49.13,4.96,6.24,6.88,10.55,10.45,15.84,3.48,5.15,7.92,12.55,7.7,12.18,9.19,11.61,17.2,20.02,26.13,28.61,6.29,6.05,20.1,14.26,27.73,20.83,12.74,10.97,14.06,8.56,27.26,17.09,9.85,4.69,19.28,9.35,28.54,15.14,4.27,2.67,1.39,13.77-.04,17.93-2.45,7.15-5.46,13.66-8.81,20.52l-36.29,69.75Z"/>
        <path class="cls-1" d="M1342.49,389.94c-9.61,2.63-22.81,4.87-31.68-.18-11.46-6.52-27.19-21.46-36.17-31.35l-32.67-36.02-26.98-30.48c-3.89-4.39-8.07-8.06-12.83-11.38-5.53-3.86-10.84-7.4-16.74-10.75l-36.67-20.88-27.07-15.68c-7-4.06-13.65-8.19-19.92-13.31-12.29-10.04-33.97-41.39-43.11-55.61-3.07-4.77-5.45-9.43-9.06-13.78-5.68-7.55-11.37-14.51-17.67-21.69-14.37-16.38-29.26-31.88-44.87-47.5,13.43-26.67,25.66-53.85,37.3-81.32l10.78,25.56,10.96,23.53,17.81,34.68,24.12,42.98,18.27,32.67c4.6,8.22,9.53,15.74,14.85,23.47,20.75,24.39,43.98,45.69,67.54,67.41l100.6,70.07c4.48,3.12,8.56,5.45,13.44,7.86l76.79,34.74c3.51,1.59,6.4,2.49,9.83,4.55-2.34,1.98-4.03,3.38-6.35,4.8-12.67,7.74-26.13,13.71-40.5,17.64Z"/>
        <path class="cls-1" d="M876.64,508.28c-2.71,1.62-3.53,2.62-6.17,1.12-3.08-1.75-7.1-6.6-9.9-8.83l-19.17-19.74c-9.41-7.5-26.75-22.26-36.62-29.12-22.84-15.89-92.47-52.25-119.09-65.75l-27.03-14.11c4.54-3.48,16.83-7.19,21.89-9.5l51.65-19.35c5.97-2.74,12.98,10.15,17.08,14.14l12.23,11.89c3.81,3.71,7.46,6.87,11.9,9.94l63.59,44.05c15.94,11.04,26.9,27.01,31.16,45.93,3.24,14.41,3.13,24.98,8.47,39.33Z"/>
        <path class="cls-1" d="M1011.46,265.19c.17,1.89-3.15,3.5-4.99,4.1-8.6,2.85-17.4,3.74-26.47,3.04-11.43-.87-20.68-.4-28.13,8.62-4.4,5.33-6.94,11.5-9.23,17.94-.52,1.47-10.49,27.63-13.27,32.83-1.84,3.69-13.96,28.23-19.62,19.58-.97-1.48-1.76-3.34-2.18-5.12-1.61-6.85-3.5-13.19-6.14-19.77-5.82-14.58-16.82-36.62-27.3-48.01-5.4-5.87-11.19-10.9-17.21-16.12-.45-.38-1.13-1.39-1.09-1.9.18-2.91,20.81-26.29,24.41-30.47,4.52-5.24,9.15-9.94,15.04-13.45,3.12-1.86,7.74-2.72,10.87-1.47.01,0,.04.01.05.01,4.5,1.24,10.52,12.16,24.47,18.72l11.2,5.8,64.13,21.54c1.97.67,5.28,2.23,5.45,4.12Z"/>
      </g>
      <g>
        <path class="cls-1" d="M168.78,1083.85l-75.74-.41s.18,89.97.18,121.72c0,28.41,32.56,41.23,32.56,41.23H0c12.41-6.7,31.91-15.82,31.91-41.68l-.1-234.33c0-20.92-16.27-32.06-29.98-37.76h211.68c8.67,0,25.15,0,40.99,0l-.24,55.95-15.17-14.12c-8.38-6.36-18.73-11.77-30.74-11.77l-115.17-.06v92.66s66.3.11,66.3.11c24.93.04,33.53-9.42,50.35-24.98l.04,76.89-9.78-9.24c-7.63-7.22-18.85-14.11-31.29-14.19Z"/>
        <path class="cls-1" d="M1461.38,970.91s23.8,15.52,23.8,31.69l-.26,143.7-136.97-169.56c-3.35-4.25-5.64-5.82-10.94-5.82h-71.85c12.88,5.25,23.67,13.25,23.67,33.45l.03,202.61c-.88,16.13-10.97,32.12-23.16,32.34-15.02.27-27.84-23-30.73-29.81l-93.44-238.59h-74.86c13.97,3.52,24.3,18.52,16.91,37.08-28.11,70.62-55,138.88-86.35,208.16-5.9,13.04-16.71,23.12-28.74,30.23h89.93c-9.04-6.29-28.57-16.09-22.09-31.58l23.34-56.31,95.45.07,19.47,51.22c10.33,22.51-9.11,30.83-18.55,36.61h198.03s-24.92-10.14-24.92-37.82c0-42.11.06-165.85.06-165.85l89.58,113.54s63.45,77.79,69.88,85.6c4.22,5.12,3.28,4.52,34.91,4.52,0,0,.09-182.45.09-243.11,0-16.74,14.53-31.29,25.19-32.35h-87.46ZM1141.44,1129.58l-37.24-.13c-10.97-.04-22.14-.13-33.09-.66l36.94-91.96,35.91,88.99c.18.44.39,1.77.42,2.24.04.63-2.12,1.52-2.93,1.52Z"/>
        <path class="cls-1" d="M773.36,1279.12c-29.49-16.28-44.18-36.23-62.98-63.61l-31.82-49.01c-11.44-17.62-24.64-32.79-41.54-46.84,24.27-5.6,46-18,59.17-39.09,10.91-17.45,14.18-38.54,6.94-57.81-12.76-33.95-58.19-51.83-90.89-51.85h-124.75c14.84,7.83,24.16,19.48,24.16,36.62l-.04,200.43c0,23.37-13.79,32.15-25.89,32.15-12.71,0-24.87-18.63-29.55-30.61l-93.44-238.59h-74.86c11.33,6.06,24.3,18.52,16.91,37.08-28.12,70.62-55.01,138.88-86.37,208.16-5.9,13.04-16.7,23.12-28.74,30.23h89.93c-9.04-6.29-28.56-16.09-22.09-31.58l23.34-56.31,95.45.07,19.48,51.22c10.32,22.51-9.11,30.83-18.55,36.61h213.52s-24.3-11.21-24.3-32.97l-.05-85.48c10.12-4.22,20.25-.08,26.04,9.11l46.47,73.84c8.23,13.08,15.54,25.56,25.45,37.44,23.39,28.03,53.78,48.48,88.79,59.88,18.38,5.99,41.82,6.44,60.33,4.03,12.94-1.69,30.35-8.51,40.87-19.01-31.43,3.86-59.19-2.07-80.99-14.1ZM362.64,1129.58l-37.24-.13c-10.98-.04-22.15-.13-33.09-.66l36.94-91.96,35.9,88.99c.18.44.4,1.77.43,2.24.04.63-2.13,1.52-2.93,1.52ZM633.74,1078.69c-21.28,19.86-39.76,17.66-67.09,17.66l-.14-97.16c24.9,0,56.12-.5,70.34,13.87,18.05,18.22,15.68,48.1-3.12,65.64Z"/>
        <path class="cls-1" d="M1557.98,1246.38c.88-.37,24.79-9.27,24.79-34.28l.13-206.68c0-14.31-12.9-30.03-24.92-34.5h141.48c31.66,0,52.73,9.43,69.59,20.9,27.49,18.7,47.9,43.47,54.65,76.29,18.28,88.92-46.31,178.19-138,178.27h-127.72ZM1760.53,1147.73c8.24-27.88,9.02-57.39,1.25-85.43-10.21-36.85-39.34-63.12-77.92-63.12h-44.15s-.02,215.26-.02,215.26h32.8c38.98,0,76.89-28.96,88.04-66.71Z"/>
        <path class="cls-1" d="M1871.37,1232.69c-13.95-4.54-21.23,6.76-24.39,13.68l.11-82.21c11.31,17.55,23.93,34.05,43.16,42.35,26.59,11.48,66.36,16.15,88.77-5.38,16-15.37,14.62-38.77-2.97-52.42-8.65-6.71-18.32-11.68-28.72-16.09l-41.12-17.41c-13.01-5.51-25.12-12.42-34.94-21.89-25.44-24.53-27.2-61.58-4.48-88.05,26.91-31.35,73.23-38.7,113.13-30.27,9.76,2.06,18.93,4.85,28.35,7.56,5.88,1.69,13.61-.02,17.78-4.07,2.04-1.99,5.55-7.59,5.55-7.59l-.35,75.06c-10.42-14-18.89-25.19-32.58-33.35-19.47-11.62-41.67-16.74-64.29-12.2-16.43,3.3-30.99,13.09-31.72,29.66-.37,8.38,3.67,16.32,10.79,21.98,5.91,4.7,12.42,8.99,19.56,12.12l38.54,16.9c30.45,13.35,64.21,28.86,73.75,62.46,11.17,39.36-13.5,79.6-53.37,94.52-40.13,15.02-80.88,7.58-120.57-5.35Z"/>
        <path class="cls-1" d="M968.49,1163.44h0c-10.06,56.85-27.69,82.94-27.69,82.94h-181.26s24.34-9.54,24.34-42.45c0-50.38.01-197.46.01-197.46,0-15.81-8.98-28.06-23.4-35.56h103.95c-10.7,5.07-24.24,15.29-24.24,32.55,0,52.73-.05,210.91-.05,210.91h0c34.95.4,98.27,5.37,128.36-50.94Z"/>
      </g>
    </g>
  </g>
</svg>